<?xml version="1.0" standalone="no"?>
<!DOCTYPE svg PUBLIC "-//W3C//DTD SVG 20010904//EN"
 "http://www.w3.org/TR/2001/REC-SVG-20010904/DTD/svg10.dtd">
<svg version="1.0" xmlns="http://www.w3.org/2000/svg"
 width="512.000000pt" height="512.000000pt" viewBox="0 0 512.000000 512.000000"
 preserveAspectRatio="xMidYMid meet">
<metadata>
Created by potrace 1.14, written by Peter Selinger 2001-2017
</metadata>
<g transform="translate(0.000000,512.000000) scale(0.100000,-0.100000)"
fill="#000000" stroke="none">
<path d="M2445 5114 c-11 -3 -47 -10 -80 -16 -295 -56 -569 -290 -679 -578
-54 -142 -64 -210 -65 -447 l-1 -161 -197 -4 c-227 -4 -257 -12 -333 -90 -82
-82 -84 -92 -105 -518 -6 -110 -12 -233 -20 -385 -7 -138 -14 -278 -20 -405
-3 -63 -7 -149 -10 -190 -3 -41 -7 -127 -10 -190 -3 -63 -8 -155 -10 -205 -6
-110 -13 -254 -20 -400 -3 -60 -8 -150 -10 -200 -3 -49 -7 -128 -10 -175 -3
-47 -7 -137 -10 -200 -11 -217 -46 -357 -141 -563 -70 -152 -71 -235 -1 -314
18 -20 50 -44 72 -54 38 -18 118 -19 1763 -19 1865 0 1751 -3 1819 54 43 36
64 80 70 147 5 53 2 65 -56 193 -66 146 -118 314 -126 405 -10 110 -15 178
-20 291 -2 63 -7 160 -10 215 -3 55 -7 141 -10 190 -6 139 -16 323 -20 400 -2
39 -7 124 -10 190 -3 66 -7 156 -10 200 -3 44 -7 130 -10 190 -3 61 -8 151
-10 201 -6 113 -13 232 -20 389 -3 66 -8 152 -10 190 -2 39 -7 133 -10 210 -9
182 -10 194 -25 241 -27 85 -122 173 -206 192 -22 5 -117 9 -213 10 -95 1
-175 2 -176 4 -1 2 -5 98 -8 213 -6 219 -12 262 -63 395 -50 136 -170 302
-274 381 -25 19 -54 42 -65 52 -48 43 -219 118 -340 147 -49 12 -271 22 -310
14z m267 -159 c309 -72 525 -274 610 -571 19 -70 22 -103 23 -277 l0 -199
-755 0 c-415 1 -770 1 -788 1 l-33 1 2 182 c1 115 7 206 16 248 83 369 398
627 768 628 56 0 126 -6 157 -13z"/>
</g>
</svg>
